<svg id="Repères" xmlns="http://www.w3.org/2000/svg" xmlns:xlink="http://www.w3.org/1999/xlink" viewBox="0 0 1280 747.08"><defs><style>.cls-1,.cls-12,.cls-18,.cls-21{fill:#2c485e;}.cls-2{font-size:60px;}.cls-10,.cls-13,.cls-2,.cls-22,.cls-23,.cls-4{fill:#fff;}.cls-18,.cls-2,.cls-22,.cls-23{font-family:SairaExtraCondensed-Bold, Saira ExtraCondensed;font-weight:700;}.cls-3{letter-spacing:-0.01em;}.cls-20,.cls-21,.cls-22,.cls-4{font-size:18px;}.cls-10,.cls-12,.cls-14,.cls-17,.cls-4{font-family:SairaExtraCondensed-Thin, Saira ExtraCondensed;}.cls-5{letter-spacing:0em;}.cls-6{letter-spacing:-0.03em;}.cls-7{letter-spacing:-0.01em;}.cls-14,.cls-20,.cls-8,.cls-9{opacity:0.36;}.cls-9{fill:#ecb9b2;}.cls-10,.cls-12{font-size:29px;}.cls-11{letter-spacing:-0.01em;}.cls-14,.cls-17{font-size:26px;}.cls-15{letter-spacing:0em;}.cls-16{letter-spacing:-0.06em;}.cls-18{font-size:31px;}.cls-19{fill:none;stroke:#2c485e;stroke-miterlimit:10;stroke-width:4px;}.cls-20,.cls-21{font-family:SairaExtraCondensed-Regular, Saira ExtraCondensed;}.cls-23{font-size:65px;}.cls-24{letter-spacing:-0.03em;}.cls-25{letter-spacing:-0.02em;}</style></defs><title>Tuiles-webdesign</title><image width="1280" height="286" xlink:href="../Downloads/Science Fiction - Dorian.png"/><rect class="cls-1" x="39" y="322" width="662" height="266"/><text class="cls-2" transform="translate(62.93 388.46)">Les c<tspan class="cls-3" x="86.52" y="0">av</tspan><tspan x="129.18" y="0">ernes d’acier</tspan></text><text class="cls-4" transform="translate(66 424.87)">L&apos;inspec<tspan class="cls-5" x="42.05" y="0">t</tspan><tspan x="45.83" y="0">eur de police Elijah Baley e</tspan><tspan class="cls-5" x="188.38" y="0">s</tspan><tspan x="194.05" y="0">t désigné pour mener une enqu</tspan><tspan class="cls-5" x="363.7" y="0">êt</tspan><tspan x="373.98" y="0">e t</tspan><tspan class="cls-5" x="387.5" y="0">r</tspan><tspan x="391.55" y="0">ès </tspan><tspan x="0" y="21.6">spéciale. Un Spacien vient en eff</tspan><tspan class="cls-5" x="171.95" y="21.6">e</tspan><tspan x="178.45" y="21.6">t d&apos;</tspan><tspan class="cls-5" x="194.47" y="21.6">ê</tspan><tspan x="200.97" y="21.6">t</tspan><tspan class="cls-5" x="204.84" y="21.6">r</tspan><tspan x="208.89" y="21.6">e assassiné </tspan><tspan class="cls-5" x="273.88" y="21.6">e</tspan><tspan x="280.38" y="21.6">t on suspec</tspan><tspan class="cls-5" x="341.52" y="21.6">t</tspan><tspan x="345.31" y="21.6">e un </tspan><tspan class="cls-6" x="371.91" y="21.6">T</tspan><tspan x="377.34" y="21.6">errien </tspan><tspan x="0" y="43.2">d&apos;</tspan><tspan class="cls-5" x="9.09" y="43.2">ê</tspan><tspan x="15.59" y="43.2">t</tspan><tspan class="cls-5" x="19.46" y="43.2">r</tspan><tspan x="23.51" y="43.2">e coupable du meurt</tspan><tspan class="cls-5" x="134.53" y="43.2">r</tspan><tspan x="138.58" y="43.2">e. Baley doit </tspan><tspan class="cls-7" x="207.5" y="43.2">r</tspan><tspan x="211.46" y="43.2">apidement </tspan><tspan class="cls-5" x="272.59" y="43.2">r</tspan><tspan x="276.64" y="43.2">ésoud</tspan><tspan class="cls-5" x="309.65" y="43.2">r</tspan><tspan x="313.7" y="43.2">e c</tspan><tspan class="cls-5" x="328.78" y="43.2">e</tspan><tspan x="335.28" y="43.2">t</tspan><tspan class="cls-5" x="339.15" y="43.2">t</tspan><tspan x="342.93" y="43.2">e affai</tspan><tspan class="cls-5" x="376.25" y="43.2">r</tspan><tspan x="380.3" y="43.2">e qui </tspan><tspan x="0" y="64.8">risque de comp</tspan><tspan class="cls-5" x="82.91" y="64.8">r</tspan><tspan x="86.96" y="64.8">om</tspan><tspan class="cls-5" x="104.65" y="64.8">e</tspan><tspan x="111.15" y="64.8">tt</tspan><tspan class="cls-5" x="118.89" y="64.8">r</tspan><tspan x="122.94" y="64.8">e la f</tspan><tspan class="cls-7" x="148.88" y="64.8">r</tspan><tspan x="152.84" y="64.8">agile paix ent</tspan><tspan class="cls-5" x="224.24" y="64.8">r</tspan><tspan x="228.29" y="64.8">e </tspan><tspan class="cls-6" x="237.94" y="64.8">T</tspan><tspan x="243.38" y="64.8">erriens </tspan><tspan class="cls-5" x="283.39" y="64.8">e</tspan><tspan x="289.89" y="64.8">t Spaciens </tspan><tspan class="cls-5" x="347.22" y="64.8">e</tspan><tspan x="353.71" y="64.8">t se</tspan><tspan class="cls-7" x="372.99" y="64.8">r</tspan><tspan x="376.95" y="64.8">a pour </tspan><tspan x="0" y="86.4">cela aidé d&apos;un </tspan><tspan class="cls-5" x="76.23" y="86.4">r</tspan><tspan x="80.28" y="86.4">ob</tspan><tspan class="cls-5" x="93.99" y="86.4">o</tspan><tspan x="100.67" y="86.4">t humanoïde </tspan><tspan class="cls-5" x="171.99" y="86.4">e</tspan><tspan x="178.49" y="86.4">t </tspan><tspan class="cls-7" x="185.42" y="86.4">év</tspan><tspan x="197.75" y="86.4">olue</tspan><tspan class="cls-7" x="220.84" y="86.4">r</tspan><tspan x="224.8" y="86.4">a sur </tspan><tspan class="cls-5" x="254.23" y="86.4">f</tspan><tspan x="258.12" y="86.4">ond d&apos;émeu</tspan><tspan class="cls-5" x="321.98" y="86.4">t</tspan><tspan x="325.76" y="86.4">es anti-</tspan><tspan class="cls-5" x="366.37" y="86.4">r</tspan><tspan x="370.42" y="86.4">ob</tspan><tspan class="cls-5" x="384.13" y="86.4">o</tspan><tspan x="390.81" y="86.4">ts. </tspan><tspan x="0" y="108">Dans ce liv</tspan><tspan class="cls-5" x="56.32" y="108">r</tspan><tspan x="60.37" y="108">e, comme dans cer</tspan><tspan class="cls-7" x="161.8" y="108">t</tspan><tspan x="165.49" y="108">aines de ses aut</tspan><tspan class="cls-5" x="252.14" y="108">r</tspan><tspan x="256.19" y="108">es œuv</tspan><tspan class="cls-5" x="295.75" y="108">r</tspan><tspan x="299.8" y="108">es appar</tspan><tspan class="cls-5" x="346.17" y="108">t</tspan><tspan x="349.95" y="108">enant au </tspan><tspan x="0" y="129.6">cycle des </tspan><tspan class="cls-5" x="52.61" y="129.6">r</tspan><tspan x="56.66" y="129.6">ob</tspan><tspan class="cls-5" x="70.38" y="129.6">o</tspan><tspan x="77.06" y="129.6">ts, Isaac Asim</tspan><tspan class="cls-7" x="149.52" y="129.6">o</tspan><tspan x="156.11" y="129.6">v nous décrit une peur des </tspan><tspan class="cls-5" x="301.17" y="129.6">r</tspan><tspan x="305.22" y="129.6">ob</tspan><tspan class="cls-5" x="318.94" y="129.6">o</tspan><tspan x="325.61" y="129.6">ts quasi-my</tspan><tspan class="cls-5" x="390.22" y="129.6">s</tspan><tspan x="395.89" y="129.6" xml:space="preserve">tique.  </tspan></text><text></text><rect class="cls-8" width="1280" height="286"/><image width="185" height="273" transform="translate(540 370) scale(0.65)" xlink:href="../Downloads/téléchargement.jpeg"/><circle class="cls-1" cx="1216.52" cy="359.52" r="31.52"/><circle class="cls-8" cx="1219.35" cy="444.5" r="31.52"/><circle class="cls-9" cx="1222.18" cy="529.48" r="31.52"/><rect class="cls-8" x="60" y="649" width="276" height="61"/><rect class="cls-9" x="389" y="649" width="276" height="61"/><text class="cls-10" transform="translate(134.08 690.63)">En s<tspan class="cls-11" x="35.58" y="0">av</tspan><tspan x="55.24" y="0">oir plus </tspan></text><text class="cls-12" transform="translate(444.08 689.63)">Découvrir l’uni<tspan class="cls-11" x="120.87" y="0">v</tspan><tspan x="130.41" y="0">ers</tspan><tspan class="cls-13" x="156.97" y="0"> </tspan></text><rect class="cls-1" x="733" y="648" width="492" height="66"/><rect class="cls-13" x="748" y="659" width="407" height="42"/><text class="cls-14" transform="translate(760 689.9)">Reche<tspan class="cls-15" x="47.45" y="0">r</tspan><tspan x="53.3" y="0">che</tspan><tspan class="cls-16" x="80.7" y="0">r</tspan><tspan x="85.12" y="0">....</tspan></text><path class="cls-13" d="M1198.13,689l-6.67-6.67a9.8,9.8,0,1,0-2.46,2.47l6.66,6.66a1.12,1.12,0,0,0,1.59,0l.88-.88A1.13,1.13,0,0,0,1198.13,689Zm-.41,1.18-.88.88a.56.56,0,0,1-.78,0l-7-7-.2.15a9.23,9.23,0,1,1,2-2l-.15.2,7,7A.55.55,0,0,1,1197.73,690.22Z" transform="translate(0 0)"/><path class="cls-13" d="M1183.41,669.5a7.3,7.3,0,1,0,7.3,7.3A7.25,7.25,0,0,0,1183.41,669.5Zm0,14a6.73,6.73,0,1,1,6.72-6.73A6.73,6.73,0,0,1,1183.41,683.53Z" transform="translate(0 0)"/><text class="cls-17" transform="translate(742.58 363.91)">ACCUEIL <tspan x="0" y="61">LIVRES</tspan><tspan x="0" y="122">BEST-SELLER</tspan><tspan x="0" y="183">BLOG</tspan></text><text class="cls-18" transform="translate(956 368.12)">4,5/5</text><polygon class="cls-1" points="928.08 397.59 922.18 403.76 923.93 412.12 916.23 408.42 908.82 412.67 909.96 404.2 903.64 398.47 912.04 396.94 915.54 389.15 919.59 396.67 928.08 397.59"/><polygon class="cls-1" points="964.08 397.59 958.18 403.76 959.93 412.12 952.23 408.42 944.82 412.67 945.96 404.2 939.64 398.47 948.04 396.94 951.54 389.15 955.59 396.67 964.08 397.59"/><polygon class="cls-1" points="1000.08 397.59 994.18 403.76 995.93 412.12 988.23 408.42 980.82 412.67 981.96 404.2 975.64 398.47 984.04 396.94 987.54 389.15 991.59 396.67 1000.08 397.59"/><polygon class="cls-1" points="1033.08 397.59 1027.18 403.76 1028.93 412.12 1021.23 408.42 1013.82 412.67 1014.96 404.2 1008.64 398.47 1017.04 396.94 1020.54 389.15 1024.59 396.67 1033.08 397.59"/><polygon class="cls-1" points="1066.08 397.59 1060.18 403.76 1061.93 412.12 1054.23 408.42 1046.82 412.67 1047.96 404.2 1041.64 398.47 1050.04 396.94 1053.54 389.15 1057.59 396.67 1066.08 397.59"/><ellipse class="cls-19" cx="985" cy="393" rx="90" ry="79"/><text class="cls-20" transform="translate(961 447.37)">(15 <tspan class="cls-7" x="17.46" y="0">v</tspan><tspan class="cls-5" x="23.52" y="0">ot</tspan><tspan x="34.29" y="0">es)</tspan></text><path class="cls-1" d="M1006.58,512.1a15.52,15.52,0,0,0-21.15,12.48,18.37,18.37,0,0,0-.13,1.92,15.5,15.5,0,1,0,21.28-14.4Zm-7.34,22.84h-.06a.62.62,0,0,1-.62-.62.6.6,0,0,1,.62-.62h.06a.62.62,0,0,1,.62.62A.6.6,0,0,1,999.24,534.95Zm4.71,0h-.06a.62.62,0,0,1-.62-.62.6.6,0,0,1,.62-.62h.06a.62.62,0,0,1,.62.62A.6.6,0,0,1,1004,534.95Zm4.29-10.59-2.18,5.85a.63.63,0,0,1-.55.39h-6.24V532h5.95a.62.62,0,1,1,0,1.23h-6.56a.62.62,0,0,1-.62-.62v-2.7l-2.5-7.93-2.66-1.49a.6.6,0,0,1,.58-1l2.89,1.62a.65.65,0,0,1,.29.36l.68,2.14a1.41,1.41,0,0,1,.16,0h10.2a.57.57,0,0,1,.49.26A.67.67,0,0,1,1008.24,524.36Zm-9.1,5h5.91l1.72-4.65h-9.13Z" transform="translate(0 0)"/><text class="cls-21" transform="translate(911 532.37)">Mon panier</text><rect class="cls-1" x="912" y="561" width="154" height="34"/><text class="cls-22" transform="translate(953 584.37)">Commander</text><rect class="cls-9" x="480" y="62" width="325" height="126"/><text class="cls-23" transform="translate(560 146.29)">GR<tspan class="cls-24" x="53.75" y="0">A</tspan><tspan x="79.3" y="0">VIT</tspan><tspan class="cls-25" x="141.89" y="0">Y</tspan><tspan x="166.07" y="0"> </tspan></text></svg>